<?xml version="1.0" encoding="UTF-8"?>
<!DOCTYPE svg PUBLIC "-//W3C//DTD SVG 1.1//EN" "http://www.w3.org/Graphics/SVG/1.1/DTD/svg11.dtd">
<!-- Creator: CorelDRAW X8 -->
<svg xmlns="http://www.w3.org/2000/svg" xml:space="preserve" width="7.15in" height="7.15in" version="1.1" style="shape-rendering:geometricPrecision; text-rendering:geometricPrecision; image-rendering:optimizeQuality; fill-rule:evenodd; clip-rule:evenodd"
viewBox="0 0 7150 7150"
 xmlns:xlink="http://www.w3.org/1999/xlink">
 <defs>
  <style type="text/css">
   <![CDATA[
    .fil0 {fill:#333333}
    .fil1 {fill:#FBFBFB}
   ]]>
  </style>
 </defs>
 <g id="Layer_x0020_1">
  <metadata id="CorelCorpID_0Corel-Layer"/>
  <g id="_2596889935840">
   <path class="fil0" d="M20 3483c0,384 10,588 100,956 259,1050 973,1899 1951,2368 428,206 904,315 1384,329l222 0c483,-15 962,-124 1394,-324 386,-179 740,-432 1022,-714 598,-598 1038,-1501 1038,-2420 0,-643 -87,-1083 -324,-1593 -179,-387 -430,-739 -714,-1022 -624,-625 -1532,-1038 -2420,-1038 -642,0 -1082,87 -1593,324 -1193,553 -2060,1800 -2060,3134z"/>
   <path class="fil1" d="M1708 3162c-367,103 -433,578 -140,774 166,111 343,82 563,82 467,-2 3088,24 3226,-18 350,-106 421,-577 129,-774 -171,-116 -337,-81 -563,-83l-1944 0c-241,-1 -1101,-29 -1271,19z"/>
   <path class="fil1" d="M1760 1605c-368,101 -442,552 -140,779 139,105 374,79 567,79l1931 0c237,0 1114,29 1281,-18 350,-99 425,-568 132,-778 -143,-102 -369,-80 -566,-80l-1931 0c-243,0 -1104,-29 -1274,18z"/>
   <path class="fil1" d="M1766 4712c-364,95 -450,544 -154,777 140,110 357,86 561,85 217,-2 436,-2 653,-1 198,1 2424,21 2562,-14 354,-89 437,-557 150,-774 -140,-106 -360,-85 -559,-87l-2570 0c-144,0 -530,-16 -643,14z"/>
  </g>
 </g>
</svg>
